<svg width="18" height="15" viewBox="0 0 18 15" fill="none" xmlns="http://www.w3.org/2000/svg">
<path d="M12.4615 6.00858C12.4615 4.96481 11.9874 4.07196 11.0391 3.33004C10.0907 2.58812 8.94952 2.21716 7.61538 2.21716C6.28125 2.21716 5.14002 2.58812 4.19171 3.33004C3.24339 4.07196 2.76923 4.96481 2.76923 6.00858C2.76923 7.05235 3.24339 7.9452 4.19171 8.68712C5.14002 9.42904 6.28125 9.8 7.61538 9.8C8.94952 9.8 10.0907 9.42904 11.0391 8.68712C11.9874 7.9452 12.4615 7.05235 12.4615 6.00858ZM18 13.0498C18 13.3432 17.863 13.5971 17.5889 13.8115C17.3149 14.0259 16.9904 14.1331 16.6154 14.1331C16.226 14.1331 15.9014 14.0259 15.6418 13.8115L11.9315 10.9171C10.6406 11.6167 9.20192 11.9665 7.61538 11.9665C6.58413 11.9665 5.59796 11.81 4.65685 11.4968C3.71574 11.1837 2.90445 10.7606 2.22296 10.2274C1.54147 9.69422 1.0006 9.05949 0.600361 8.32321C0.20012 7.58693 0 6.81539 0 6.00858C0 5.20177 0.20012 4.43023 0.600361 3.69395C1.0006 2.95767 1.54147 2.32294 2.22296 1.78977C2.90445 1.25661 3.71574 0.833456 4.65685 0.520325C5.59796 0.207194 6.58413 0.0506287 7.61538 0.0506287C8.64664 0.0506287 9.63281 0.207194 10.5739 0.520325C11.515 0.833456 12.3263 1.25661 13.0078 1.78977C13.6893 2.32294 14.2302 2.95767 14.6304 3.69395C15.0306 4.43023 15.2308 5.20177 15.2308 6.00858C15.2308 7.24982 14.7837 8.3754 13.8894 9.38532L17.5998 12.2881C17.8666 12.4969 18 12.7508 18 13.0498Z" fill="#02A28F"/>
</svg>
